<svg xmlns="http://www.w3.org/2000/svg" width="1600" height="400" viewBox="0 0 1600 400" role="img" aria-labelledby="title desc">
  <title id="title">Burak Çetin — Senior Backend and Data Engineer</title>
  <desc id="desc">A dark cloud engineering banner with subtle network traces.</desc>
  <defs>
    <linearGradient id="bg" x1="0" y1="0" x2="1" y2="1"><stop stop-color="#07111f"/><stop offset=".52" stop-color="#0b1d32"/><stop offset="1" stop-color="#06101c"/></linearGradient>
    <radialGradient id="glow"><stop stop-color="#22d3ee" stop-opacity=".18"/><stop offset="1" stop-color="#22d3ee" stop-opacity="0"/></radialGradient>
    <pattern id="grid" width="40" height="40" patternUnits="userSpaceOnUse"><path d="M40 0H0V40" fill="none" stroke="#67e8f9" stroke-opacity=".07"/></pattern>
    <filter id="blur"><feGaussianBlur stdDeviation="18"/></filter>
  </defs>
  <rect width="1600" height="400" fill="url(#bg)"/>
  <ellipse cx="800" cy="185" rx="380" ry="190" fill="url(#glow)" filter="url(#blur)"/>
  <rect width="1600" height="400" fill="url(#grid)"/>
  <g fill="none" stroke="#67e8f9" stroke-opacity=".2" stroke-width="1.5">
    <path d="M0 94h180l38 38h136m-354 150h118l42-42h177"/><path d="M1600 96h-170l-46 46h-150m366 143h-120l-35-35h-176"/>
    <path d="M270 0v48l34 34v58m1030-140v50l-36 36v53"/>
  </g>
  <g fill="#67e8f9" fill-opacity=".55"><circle cx="218" cy="132" r="3"/><circle cx="160" cy="240" r="3"/><circle cx="1384" cy="142" r="3"/><circle cx="1445" cy="250" r="3"/></g>
  <g fill="#67e8f9" fill-opacity=".65"><circle r="3"><animateMotion dur="7s" repeatCount="indefinite" path="M0,94 H180 L218,132 H354"/></circle><circle r="3"><animateMotion dur="9s" repeatCount="indefinite" path="M1600,96 H1430 L1384,142 H1234"/></circle></g>
  <g text-anchor="middle" fill="#e6f7ff">
    <text x="800" y="162" font-family="Inter,Segoe UI,sans-serif" font-size="54" font-weight="700" letter-spacing="1">Burak Çetin</text>
    <text x="800" y="208" font-family="Inter,Segoe UI,sans-serif" font-size="24" fill="#a7c9da" letter-spacing=".8">Senior Backend &amp; Data Engineer</text><text x="1002" y="208" font-family="ui-monospace,monospace" font-size="20" fill="#67e8f9">█<animate attributeName="opacity" values="1;1;0;0;1" dur="1.4s" repeatCount="indefinite"/></text>
    <text x="800" y="249" font-family="ui-monospace,SFMono-Regular,Menlo,monospace" font-size="15" fill="#67e8f9" letter-spacing="2">CLOUD NATIVE  •  DISTRIBUTED SYSTEMS  •  AI PLATFORMS</text>
  </g>
  <g font-family="ui-monospace,SFMono-Regular,Menlo,monospace" font-size="11" fill="#c7f6ff" text-anchor="middle">
    <text x="580" y="315" fill-opacity=".28">AWS<animate attributeName="fill-opacity" values=".28;1;.28" dur="7.5s" begin="0s" repeatCount="indefinite"/></text><text x="690" y="335" fill-opacity=".28">DOCKER<animate attributeName="fill-opacity" values=".28;1;.28" dur="7.5s" begin="1.5s" repeatCount="indefinite"/></text><text x="810" y="315" fill-opacity=".28">PYTHON<animate attributeName="fill-opacity" values=".28;1;.28" dur="7.5s" begin="3s" repeatCount="indefinite"/></text><text x="920" y="335" fill-opacity=".28">K8S<animate attributeName="fill-opacity" values=".28;1;.28" dur="7.5s" begin="4.5s" repeatCount="indefinite"/></text><text x="1030" y="315" fill-opacity=".28">FASTAPI<animate attributeName="fill-opacity" values=".28;1;.28" dur="7.5s" begin="6s" repeatCount="indefinite"/></text>
  </g>
</svg>
