<svg xmlns="http://www.w3.org/2000/svg" viewBox="0 0 24 24" fill="#ffffff"><path d="M12 .7a11.3 11.3 0 0 0-3.57 22.02c.57.1.77-.25.77-.54v-2.1c-3.14.68-3.8-1.33-3.8-1.33-.51-1.3-1.25-1.64-1.25-1.64-1.02-.7.08-.69.08-.69 1.13.08 1.73 1.16 1.73 1.16 1 .1.68 2.45 3.22 1.74.1-.73.39-1.23.71-1.51-2.51-.29-5.15-1.26-5.15-5.6 0-1.24.44-2.25 1.16-3.04-.12-.28-.5-1.44.11-3 0 0 .95-.3 3.1 1.16a10.75 10.75 0 0 1 5.64 0c2.15-1.46 3.1-1.16 3.1-1.16.61 1.56.23 2.72.11 3 .72.79 1.16 1.8 1.16 3.04 0 4.35-2.64 5.3-5.16 5.59.4.35.76 1.03.76 2.08v3.08c0 .3.2.65.78.54A11.3 11.3 0 0 0 12 .7Z"/></svg>
